<svg width="40.000000" height="40.000000" viewBox="0 0 40 40" fill="none" xmlns="http://www.w3.org/2000/svg" xmlns:xlink="http://www.w3.org/1999/xlink">
	<desc>
			Created with Pixso.
	</desc>
	<defs>
		<clipPath id="clip7_29">
			<rect id="Asset 28" width="40.000000" height="40.000000" fill="white"/>
		</clipPath>
	</defs>
	<g clip-path="url(#clip7_29)">
		<path id="Vector" d="M40 20C40 23.7798 38.9513 27.3142 37.1281 30.3293C35.2796 33.3911 32.6315 35.916 29.4741 37.6172C26.6549 39.1375 23.4283 40 20.0006 40C16.5729 40 13.3451 39.1375 10.5247 37.6172C7.36853 35.916 4.72037 33.3911 2.8707 30.3293C1.04871 27.3142 0 23.7798 0 20C0 8.95508 8.95416 0 20.0006 0C31.0471 0 40 8.95508 40 20Z" fill-rule="evenodd" fill="#C6E4F6"/>
		<path id="Vector" d="M13.0521 10.5193L13.0521 10.5193C10.4305 10.5193 8.3053 12.6445 8.3053 15.2659L8.3053 28.9714C8.3053 31.593 10.4305 33.718 13.0521 33.718L13.0521 33.718C15.6736 33.718 17.7989 31.593 17.7989 28.9714L17.7989 15.2659C17.7989 12.6445 15.6736 10.5193 13.0521 10.5193Z" fill-rule="evenodd" fill="#FEC84B"/>
		<path id="Vector" d="M26.9466 10.5193C29.5682 10.5193 31.6934 12.6445 31.6934 15.2659L31.6934 28.9714C31.6934 31.593 29.5682 33.718 26.9466 33.718C24.325 33.718 22.1998 31.593 22.1998 28.9714L22.1998 15.2659C22.1998 12.6445 24.325 10.5193 26.9466 10.5193Z" fill-rule="evenodd" fill="#FEDF89"/>
		<path id="Vector" d="M16.085 15.2029C16.085 16.8779 14.7271 18.2358 13.0521 18.2358C11.3771 18.2358 10.0192 16.8779 10.0192 15.2029C10.0192 13.5281 11.3771 12.1702 13.0521 12.1702C14.7271 12.1702 16.085 13.5281 16.085 15.2029Z" fill-rule="evenodd" fill="#FFFFFF"/>
		<path id="Vector" d="M29.9796 15.2029C29.9796 16.8779 28.6216 18.2358 26.9466 18.2358C25.2716 18.2358 23.9137 16.8779 23.9137 15.2029C23.9137 13.5281 25.2716 12.1702 26.9466 12.1702C28.6216 12.1702 29.9796 13.5281 29.9796 15.2029Z" fill-rule="evenodd" fill="#FFFFFF"/>
		<path id="Vector" d="M20.0006 24.5505L20.0006 40C23.4283 40 26.6549 39.1375 29.4741 37.6172C32.6315 35.916 35.2796 33.3911 37.128 30.3296C32.3749 26.7043 26.4399 24.5505 20.0006 24.5505L20.0006 24.5505Z" fill-rule="evenodd" fill="#FEDF89"/>
		<path id="Vector" d="M2.87076 30.3296C4.72043 33.3911 7.36859 35.916 10.5247 37.6172C13.3452 39.1375 16.5729 40 19.9995 40L19.9995 24.5505C13.5602 24.5505 7.62256 26.7043 2.86951 30.3296L2.87076 30.3296Z" fill-rule="evenodd" fill="#FEC84B"/>
		<path id="Vector" d="M14.8589 15.2031C14.8589 16.2009 14.05 17.01 13.0521 17.01C12.0541 17.01 11.2451 16.2009 11.2451 15.2031C11.2451 14.2053 12.0541 13.3962 13.0521 13.3962C14.05 13.3962 14.8589 14.2053 14.8589 15.2031Z" fill-rule="evenodd" fill="#263238"/>
		<path id="Vector" d="M28.5637 15.2031C28.5637 16.2009 27.7547 17.01 26.7568 17.01C25.7588 17.01 24.9498 16.2009 24.9498 15.2031C24.9498 14.2053 25.7588 13.3962 26.7568 13.3962C27.7547 13.3962 28.5637 14.2053 28.5637 15.2031Z" fill-rule="evenodd" fill="#263238"/>
	</g>
</svg>
